<svg width="41" height="41" viewBox="0 0 41 41" fill="none" xmlns="http://www.w3.org/2000/svg">
<path d="M34.7939 1.48145C34.6258 1.6416 34.5938 1.75371 34.5938 2.13808C34.5938 3.26719 34.1854 5.09297 33.6248 6.50234C31.9271 10.7785 28.2115 15.391 22.7021 20.0676C22.2697 20.4359 22.1736 20.484 21.7572 20.516C21.2688 20.5561 20.9965 20.7082 20.7082 21.0926C20.476 21.4049 20.476 22.1576 20.7082 22.4699C20.9564 22.8063 21.2447 22.9904 21.5891 23.0385L21.9014 23.0785L22.0455 23.8072C22.3418 25.3367 23.1266 27.2266 24.0234 28.5639C25.577 30.8781 27.635 32.5518 30.2375 33.6168C31.4387 34.1053 32.4076 34.3375 34.2574 34.5617L34.5938 34.6018V36.9641V39.3264L34.7939 39.5186C35.0502 39.7828 35.4186 39.7828 35.6748 39.5186L35.875 39.3264V36.9641V34.6018L36.1793 34.5537C37.6928 34.3295 39.1742 33.865 39.5346 33.5047C39.7828 33.2564 39.7748 32.8801 39.5186 32.6318C39.2703 32.3756 39.1342 32.3836 38.3975 32.6799C37.1723 33.1684 36.6838 33.2564 35.1943 33.2645C33.7289 33.2645 32.9922 33.1684 31.727 32.784C28.4598 31.799 25.633 29.3566 24.2076 26.2816C23.9354 25.6971 23.9113 25.4648 24.1275 25.4648C24.1916 25.4648 24.4959 25.3367 24.8002 25.1846C26.2416 24.4639 27.1225 22.7502 26.8502 21.1807C26.7461 20.5561 26.3857 19.7633 26.0334 19.3629L25.7852 19.0746L26.5699 18.3459C26.9943 17.9455 27.8432 17.0887 28.4438 16.44C31.0783 13.5813 32.832 11.1389 34.1213 8.52832C35.1543 6.42226 35.7469 4.38828 35.851 2.57051C35.899 1.70566 35.899 1.69765 35.6908 1.48945C35.4186 1.21719 35.0582 1.20918 34.7939 1.48145ZM25.3607 20.7002C25.5449 21.0445 25.577 21.2047 25.585 21.7813C25.585 22.4059 25.5609 22.502 25.3127 22.9664C25.0084 23.527 24.7522 23.7752 24.1756 24.0715C23.599 24.3598 23.4949 24.3357 23.3988 23.8793C23.2627 23.2627 23.1586 22.582 23.1105 22.0135L23.0625 21.485L23.9594 20.7162L24.8643 19.9475L25.0084 20.1236C25.0885 20.2197 25.2486 20.476 25.3607 20.7002Z" fill="black"/>
<path d="M10.29 4.00392C5.9418 4.78868 2.38633 8.35216 1.62559 12.6844C1.45742 13.6613 1.46543 15.351 1.6416 16.376C1.87383 17.7053 2.52246 19.451 3.20313 20.5881L3.3793 20.8764L3.16309 21.1086C2.53848 21.7652 2.57852 22.8463 3.25117 23.6551C3.7877 24.2877 4.79668 24.7442 5.66152 24.7442H6.10996L6.7666 25.3688C8.69648 27.2266 10.7625 28.0594 13.4131 28.0594C14.6703 28.0594 15.2949 27.9793 16.5842 27.659C18.2979 27.2346 20.2277 26.3858 20.6441 25.8813C20.9084 25.5449 20.5961 24.9043 20.1717 24.9043C20.0436 24.9043 19.6512 25.0725 19.2588 25.2967C18.474 25.7451 16.7764 26.3377 15.5752 26.5779C13.317 27.0344 11.3471 26.8102 9.6334 25.9053C8.77656 25.4568 8.12793 24.9524 7.33516 24.1516L6.69453 23.5029L5.87773 23.4549C5.18906 23.4149 5.01289 23.3828 4.69258 23.1906C4.25215 22.9344 3.98789 22.558 4.01992 22.2217C4.04395 22.0215 4.10801 21.9494 4.39629 21.8133C5.11699 21.469 5.13301 21.1647 4.51641 20.2197C3.3793 18.474 2.80273 16.5281 2.80273 14.4541C2.80273 12.8125 3.075 11.6834 3.82773 10.21C4.9168 8.0879 6.83066 6.45431 9.20898 5.59747C10.6824 5.06896 12.1719 5.69357 12.8365 7.11095C13.317 8.13595 13.1168 9.20099 12.324 9.88165C11.3791 10.6824 10.0498 10.5143 9.55332 9.52931C9.36113 9.16095 9.32109 8.71251 9.44121 8.3922C9.55332 8.09591 9.92969 7.7756 10.258 7.68751C10.8666 7.51935 11.0828 6.99083 10.6904 6.60646C10.1459 6.05392 8.77656 6.76661 8.28809 7.85568C8.0959 8.29611 8.07188 8.42423 8.10391 8.96075C8.15195 9.69747 8.34414 10.1779 8.82461 10.6985C9.24902 11.1629 9.61738 11.4031 10.1699 11.5633C11.9877 12.1078 13.9896 10.7545 14.342 8.75255C14.5262 7.71954 14.0938 6.3422 13.325 5.5254C12.9006 5.07697 12.9086 5.07697 13.8695 5.24513C15.2229 5.47736 16.6563 6.09396 17.7133 6.88673C20.7322 9.16095 22.6781 13.5652 22.1336 16.8965C21.9094 18.2818 21.9094 18.2818 22.0855 18.4981C22.2857 18.7463 22.7502 18.7623 22.9824 18.5381C23.1826 18.3299 23.3668 17.6092 23.4709 16.6242C23.7912 13.5572 22.3418 9.68146 19.9555 7.19103C18.2738 5.43732 16.4801 4.44435 14.2139 4.00392C13.1168 3.79572 11.4432 3.79572 10.29 4.00392Z" fill="black"/>
<path d="M18.5621 18.2338C18.2898 18.3779 18.0576 18.434 17.7613 18.434C17.3049 18.434 16.9445 18.5781 16.8645 18.7783C16.7604 19.0586 16.8164 19.3549 17.0166 19.5391C17.1848 19.6912 17.2969 19.7232 17.7533 19.7152C18.9385 19.7072 19.9955 19.0666 19.8113 18.466C19.6592 17.9775 19.2027 17.8895 18.5621 18.2338Z" fill="black"/>
<path d="M12.0838 19.8434C11.5633 20.1076 11.4271 20.1397 10.9707 20.1236C10.3621 20.1076 10.1379 20.1957 10.0018 20.508C9.87363 20.8283 10.0258 21.1727 10.3541 21.3168C11.1789 21.6611 13.0447 21.1006 13.277 20.4359C13.3891 20.1156 13.2209 19.7473 12.9086 19.6352C12.7004 19.5631 12.5963 19.5951 12.0838 19.8434Z" fill="black"/>
<path d="M16.4961 23.2307C16.3439 23.3107 16.1357 23.3828 16.0396 23.3828C15.7834 23.3828 15.5352 23.6551 15.5352 23.9354C15.5352 24.2797 15.6072 24.4158 15.8715 24.552C16.0637 24.6561 16.1838 24.6561 16.5201 24.584C17.4811 24.3758 17.9135 23.7512 17.417 23.2627C17.1848 23.0225 16.8805 23.0145 16.4961 23.2307Z" fill="black"/>
<path d="M7.80762 28.4678C7.55137 28.716 7.55137 28.9643 7.79961 29.9973C8.67246 33.5928 11.1469 36.1793 14.382 36.884C15.2229 37.0602 16.9525 37.0682 17.7613 36.884C21.2287 36.1152 24.1836 33.5688 24.1836 31.3586C24.1836 30.2295 23.2947 29.1324 22.1977 28.9002C21.2127 28.7 20.0836 29.0283 17.6572 30.2375C16.7283 30.6939 15.8875 31.0703 15.7754 31.0703C15.1268 31.0623 13.9897 30.5578 13.1488 29.8852C12.6363 29.4768 12.5402 29.4367 12.2119 29.4607C11.9957 29.4848 11.6914 29.8291 11.6914 30.0533C11.6914 30.3256 11.8756 30.5338 12.5723 31.0623C13.6613 31.8791 14.8385 32.3436 15.8314 32.3516C16.1918 32.3516 16.448 32.2475 18.0256 31.4707C20.0596 30.4697 20.9004 30.1574 21.541 30.1574C22.0855 30.1574 22.4379 30.3336 22.7102 30.75C22.8863 31.0143 22.9184 31.1344 22.8863 31.4547C22.8223 32.1033 22.542 32.5678 21.7092 33.3926C20.5721 34.5217 19.1947 35.2584 17.5772 35.6107C16.7283 35.8029 15.1828 35.7789 14.374 35.5627C12.0117 34.9381 10.242 33.2324 9.35313 30.71C9.18496 30.2375 8.99277 29.5168 8.84063 28.7721C8.74453 28.2916 8.15195 28.1154 7.80762 28.4678Z" fill="black"/>
</svg>
