<svg width="41" height="41" viewBox="0 0 41 41" fill="none" xmlns="http://www.w3.org/2000/svg">
<g clip-path="url(#clip0_1_75)">
<path d="M17.5051 0.816799C17.3129 0.984962 17.2729 1.14512 17.0566 2.52246C16.9205 3.35527 16.8004 4.11602 16.7764 4.2041C16.7523 4.33223 16.5922 4.4043 16.0156 4.55645C15.0547 4.80469 13.4371 5.46934 12.5162 5.98985C12.1078 6.22207 11.7555 6.40625 11.7234 6.40625C11.6994 6.40625 11.1148 5.99785 10.4262 5.49336C8.96074 4.43633 8.87266 4.38828 8.62441 4.44434C8.39219 4.5084 4.51641 8.37617 4.44434 8.62441C4.38027 8.85664 4.43633 8.96074 5.49336 10.4262C5.99785 11.1148 6.40625 11.6994 6.40625 11.7234C6.40625 11.7555 6.22207 12.1078 5.98984 12.5162C5.46934 13.4371 4.80469 15.0547 4.55645 16.0156C4.4043 16.5922 4.33223 16.7523 4.2041 16.7764C4.11602 16.8004 3.36328 16.9205 2.52246 17.0566C1.14512 17.2729 0.984961 17.3129 0.816797 17.5051C0.640625 17.7053 0.640625 17.7133 0.640625 20.5C0.640625 23.2867 0.640625 23.2947 0.816797 23.4949C0.984961 23.6791 1.14512 23.7271 2.52246 23.9434C3.36328 24.0715 4.11602 24.1996 4.2041 24.2236C4.33223 24.2477 4.4043 24.4078 4.55645 24.9844C4.80469 25.9453 5.46934 27.5629 5.98984 28.4838C6.22207 28.8922 6.40625 29.2445 6.40625 29.2766C6.40625 29.3006 5.99785 29.8852 5.49336 30.5738C4.43633 32.0393 4.38027 32.1434 4.44434 32.3756C4.51641 32.6238 8.39219 36.4916 8.62441 36.5557C8.87266 36.6117 8.96074 36.5637 10.4422 35.4906L11.7154 34.5697L12.2439 34.866C13.4691 35.5547 15.0387 36.2033 16.1598 36.4836C16.6082 36.5957 16.7523 36.6678 16.7764 36.7959C16.8004 36.884 16.9205 37.6367 17.0566 38.4775C17.2729 39.8549 17.3129 40.015 17.5051 40.1752C17.7053 40.3594 17.7133 40.3594 20.5 40.3594C23.2867 40.3594 23.2947 40.3594 23.4949 40.1832C23.6791 40.015 23.7271 39.8549 23.9033 38.7178C24.0154 38.0131 24.1275 37.3404 24.1516 37.2203C24.1916 37.0041 24.1996 37.0121 24.6801 37.5246C26.618 39.5906 29.6609 40.6637 32.4797 40.2713C37.4205 39.5826 40.952 34.9621 40.2713 30.0613C39.991 28.0594 38.95 26.0174 37.5246 24.6801C37.0121 24.1996 37.0041 24.1916 37.2203 24.1516C37.3404 24.1275 38.0131 24.0154 38.7178 23.9033C39.8549 23.7271 40.015 23.6791 40.1832 23.4949C40.3594 23.2947 40.3594 23.2867 40.3594 20.5C40.3594 17.7133 40.3594 17.7053 40.1832 17.5051C40.015 17.3129 39.8549 17.2729 38.4775 17.0566C37.6447 16.9205 36.884 16.8004 36.7959 16.7764C36.6678 16.7523 36.5957 16.6082 36.4836 16.1598C36.2033 15.0387 35.5547 13.4691 34.866 12.2439L34.5697 11.7154L35.4906 10.4422C36.5637 8.96074 36.6197 8.85664 36.5557 8.62441C36.4836 8.37617 32.6078 4.5084 32.3756 4.44434C32.1273 4.38828 32.0393 4.43633 30.5578 5.50938L29.2926 6.43027L28.7561 6.13398C27.5309 5.44531 25.9613 4.79668 24.8402 4.51641C24.3918 4.4043 24.2477 4.33223 24.2236 4.2041C24.1996 4.11602 24.0795 3.35527 23.9434 2.52246C23.7271 1.14512 23.6871 0.984962 23.4949 0.816799C23.2947 0.640625 23.2867 0.640625 20.5 0.640625C17.7133 0.640625 17.7053 0.640625 17.5051 0.816799ZM22.8143 3.53946C22.9984 4.7166 23.1105 5.20508 23.2146 5.30918C23.2867 5.38926 23.7432 5.55742 24.2316 5.67754C25.8092 6.10196 27.0584 6.61445 28.3797 7.40723C28.7881 7.64746 29.2125 7.84766 29.3166 7.84766C29.4447 7.84766 30.0133 7.4873 30.8621 6.87871L32.2074 5.90176L33.6408 7.33516C34.4256 8.11992 35.0742 8.78457 35.0742 8.80859C35.0742 8.83262 34.6418 9.44121 34.1133 10.1699C33.4967 11.0107 33.1523 11.5553 33.1523 11.6834C33.1523 11.7875 33.3686 12.2439 33.6328 12.6844C34.4176 14.0297 34.898 15.1828 35.3225 16.7684C35.4426 17.2568 35.6107 17.7133 35.6908 17.7854C35.7949 17.8895 36.2594 17.9936 37.3645 18.1697C38.2053 18.3059 38.934 18.418 38.982 18.418C39.0541 18.418 39.0781 18.9705 39.0781 20.5C39.0781 22.0295 39.0541 22.582 38.982 22.582C38.6777 22.582 35.835 23.0865 35.7148 23.1586C35.5947 23.2387 35.4506 23.1986 34.9141 22.9504C34.5617 22.7902 34.0412 22.598 33.7689 22.526L33.2725 22.3979V20.548C33.2645 18.9385 33.2484 18.5941 33.0963 17.9135C32.5117 15.3109 31.4146 13.309 29.5488 11.4432C27.691 9.57734 25.4969 8.39219 22.9264 7.87168C21.8373 7.64746 18.9865 7.67149 17.9135 7.91172C15.3189 8.48828 13.301 9.59336 11.4432 11.4432C9.59336 13.301 8.48828 15.3109 7.91172 17.9135C7.75957 18.5941 7.73555 18.9385 7.73555 20.5C7.73555 22.4859 7.81562 23.0785 8.32812 24.6C9.57734 28.3316 12.6684 31.4227 16.4 32.6719C17.9295 33.1844 18.5141 33.2645 20.548 33.2725H22.3979L22.526 33.7689C22.598 34.0412 22.7902 34.5617 22.9504 34.9141C23.1986 35.4506 23.2387 35.5947 23.1586 35.7148C23.1105 35.7949 22.9504 36.5877 22.8062 37.4686L22.55 39.0781H20.484C18.9705 39.0781 18.418 39.0541 18.418 38.982C18.418 38.934 18.3059 38.2053 18.1777 37.3645C17.8895 35.5627 17.8975 35.5707 16.9205 35.3545C15.5832 35.0582 14.1018 34.4576 12.7084 33.6408C12.252 33.3686 11.7875 33.1523 11.6834 33.1523C11.5553 33.1523 11.0027 33.5047 10.1699 34.1133C9.44121 34.6418 8.83262 35.0742 8.80859 35.0742C8.78457 35.0742 8.11992 34.4256 7.33516 33.6408L5.90176 32.2074L6.09395 31.9432C6.19805 31.791 6.63848 31.1904 7.06289 30.5979C7.55937 29.9172 7.84766 29.4447 7.84766 29.3166C7.84766 29.2125 7.63144 28.7561 7.36719 28.3156C6.58242 26.9703 6.10195 25.8172 5.67754 24.2316C5.55742 23.7432 5.38926 23.2867 5.30918 23.2146C5.20508 23.1105 4.7166 22.9984 3.54746 22.8143L1.92188 22.55V20.5V18.45L3.54746 18.1938C4.73262 18.0016 5.20508 17.8975 5.30918 17.7934C5.38926 17.7133 5.55742 17.2568 5.67754 16.7684C6.10195 15.1828 6.58242 14.0297 7.36719 12.6844C7.63144 12.2439 7.84766 11.7875 7.84766 11.6834C7.84766 11.5553 7.50332 11.0107 6.88672 10.1699C6.3582 9.44121 5.92578 8.83262 5.92578 8.80859C5.92578 8.78457 6.57441 8.11992 7.35918 7.33516L8.79258 5.90176L9.05684 6.09394C9.20898 6.19805 9.80957 6.63848 10.4021 7.06289C11.0748 7.55137 11.5553 7.84766 11.6754 7.84766C11.7875 7.84766 12.252 7.63145 12.7084 7.35918C14.0938 6.55039 16.0236 5.78965 17.2328 5.57344C17.8414 5.46133 17.9055 5.34121 18.1777 3.63555C18.3059 2.79473 18.418 2.06602 18.418 2.01797C18.418 1.9459 18.9705 1.92188 20.484 1.92188H22.55L22.8143 3.53946ZM22.8223 9.16094C26.7301 10.0578 29.8131 12.6363 31.2385 16.2158C31.735 17.473 31.9592 18.5621 32.0072 19.9875C32.0312 20.6922 32.0312 21.477 31.9992 21.7252L31.9432 22.1816H31.1984C30.2615 22.1816 29.2205 22.3578 28.3477 22.6701C27.9713 22.8062 27.6029 22.9344 27.5309 22.9584C27.4027 22.9984 27.3867 22.9264 27.3867 22.2377C27.3867 21.1807 27.2025 20.7082 26.5539 20.0516C25.8092 19.3148 24.6641 18.8504 22.8863 18.5701L22.2617 18.474L22.7021 18.0016C23.4629 17.1848 23.8473 16.2318 23.9193 15.0387C23.9754 14.1098 23.8633 13.4371 23.535 12.8125C23.2547 12.276 23.1266 12.1238 22.6381 11.7475C21.557 10.9227 19.451 10.9146 18.3699 11.7395C17.8814 12.1158 17.6732 12.3641 17.433 12.8525C17.1367 13.4451 17.0246 14.1418 17.0807 15.0387C17.1527 16.2318 17.5371 17.1848 18.2979 18.0016L18.7383 18.482L18.2818 18.5381C17.4971 18.6342 16.0797 19.0266 15.4951 19.3068C14.7264 19.6752 14.0217 20.3799 13.7895 21.0045C13.6213 21.4529 13.6133 21.5811 13.6133 24.7441V28.0193L13.8215 28.1795C14.0297 28.3477 14.1098 28.3477 18.3299 28.3477H22.6301L22.4379 29.0844C22.3098 29.5969 22.2377 30.1574 22.2057 30.8861L22.1576 31.9432L21.7172 31.9992C21.477 32.0312 20.6922 32.0312 19.9875 32.0072C18.9064 31.9752 18.5461 31.9271 17.7693 31.727C15.6152 31.1744 13.8375 30.1734 12.332 28.668C10.8346 27.1625 9.8416 25.4168 9.26504 23.2307C9.03281 22.3338 9.0168 22.2377 9.0168 20.5801C9.00879 19.1707 9.03281 18.7463 9.16094 18.2178C9.91367 14.9586 11.5953 12.5162 14.2779 10.7785C15.6393 9.88965 17.3209 9.26504 19.0186 9.0168C19.5551 8.93672 22.3178 9.04082 22.8223 9.16094ZM21.7252 12.6764C22.4299 13.0928 22.7102 13.7975 22.6381 14.9586C22.542 16.5602 21.6451 17.7133 20.5 17.7133C19.6912 17.7133 18.9625 17.1047 18.5621 16.0957C18.418 15.7354 18.3859 15.4871 18.3859 14.7344C18.3779 13.9256 18.402 13.7654 18.5701 13.4291C18.9305 12.6924 19.5391 12.3961 20.6201 12.4361C21.2447 12.4521 21.4049 12.4922 21.7252 12.6764ZM23.2547 19.9395C24.7521 20.2598 25.4969 20.6281 25.8973 21.2527C26.0975 21.557 26.1055 21.6211 26.1055 22.6701V23.7672L25.7691 24.0314C25.577 24.1756 25.2326 24.4719 25.0084 24.6961L24.584 25.0965V24.1115C24.584 23.1346 24.584 23.1266 24.3518 22.8943C24.2236 22.7662 24.0555 22.6621 23.9834 22.6621C23.7912 22.6621 23.4068 22.8783 23.3508 23.0225C23.3268 23.0945 23.3027 23.9754 23.3027 24.9844C23.3027 25.9934 23.2787 26.8662 23.2547 26.9383C23.2146 27.0504 22.8863 27.0664 20.452 27.0664H17.6973V25.1125C17.6973 24.0395 17.6732 23.0945 17.6492 23.0225C17.5932 22.8783 17.2088 22.6621 17.0166 22.6621C16.9445 22.6621 16.7764 22.7662 16.6482 22.8943L16.416 23.1266V25.0965V27.0664H15.6553H14.8945V24.3197V21.573L15.1027 21.2527C15.5271 20.5961 16.4721 20.1637 18.1777 19.8594C19.3709 19.6432 22.0855 19.6832 23.2547 19.9395ZM32.792 23.615C34.2975 23.9273 35.5707 24.6 36.6598 25.657C37.7328 26.682 38.4375 27.8832 38.8139 29.2846C39.1021 30.3736 39.1182 32.0393 38.8539 33.1043C38.2773 35.3945 36.7158 37.3084 34.5777 38.3174C33.4166 38.8619 32.6318 39.0301 31.2305 39.0301C30.2455 39.0221 29.9492 38.99 29.2926 38.8139C25.8652 37.901 23.4629 34.7939 23.4629 31.2705C23.4629 27.5789 26.0574 24.3918 29.709 23.615C30.6219 23.4229 31.8711 23.4229 32.792 23.615Z" fill="black"/>
<path d="M34.834 27.2266C34.6818 27.2506 34.4496 27.3387 34.3135 27.4107C34.1854 27.4748 33.1523 28.4598 32.0313 29.5809L29.9893 31.6309L29.1885 30.8381C28.2436 29.9012 28.0033 29.765 27.3467 29.765C26.0014 29.765 25.0885 31.1424 25.633 32.3516C25.8252 32.792 28.7 35.7228 29.1885 35.9711C29.6449 36.2113 30.3496 36.2113 30.8461 35.9711C31.1264 35.835 31.9352 35.0582 33.9771 32.9682C35.4906 31.4146 36.7959 30.0213 36.884 29.8691C37.1002 29.4687 37.0842 28.652 36.86 28.2195C36.4756 27.4908 35.6348 27.0744 34.834 27.2266ZM35.6588 28.7721C35.7709 28.9082 35.8029 29.0363 35.7629 29.1805C35.7309 29.3086 34.6418 30.4697 32.9682 32.1514C30.8381 34.2975 30.1895 34.9221 30.0373 34.9141C29.8852 34.9141 29.4527 34.5297 28.3316 33.4086C27.4988 32.5838 26.8021 31.8311 26.7701 31.727C26.666 31.3025 27.1785 30.8781 27.5629 31.0703C27.659 31.1264 28.2035 31.6148 28.7561 32.1594C29.6449 33.0322 29.7971 33.1523 30.0373 33.1523C30.2936 33.1603 30.4697 32.9922 32.5518 30.8781C33.785 29.6209 34.882 28.5559 34.9941 28.5158C35.2504 28.4277 35.4666 28.5078 35.6588 28.7721Z" fill="black"/>
</g>
<defs>
<clipPath id="clip0_1_75">
<rect width="41" height="41" fill="white"/>
</clipPath>
</defs>
</svg>
