<svg width="41" height="41" viewBox="0 0 41 41" fill="none" xmlns="http://www.w3.org/2000/svg">
<g clip-path="url(#clip0_1_64)">
<path d="M19.6992 0.120129C18.3139 0.512512 17.377 1.72169 17.3689 3.13107C17.3689 3.40333 17.425 3.86779 17.5051 4.16407C17.7053 4.93283 17.6572 5.02892 16.8324 5.54943C15.9516 6.10997 14.9666 7.11896 14.4621 7.9758C14.2539 8.32814 14.0697 8.68849 14.0457 8.77658C14.0057 8.92072 13.9256 8.95275 13.4531 8.99279C12.5963 9.06486 12.0197 9.44122 11.7154 10.1299C11.6033 10.3861 11.5713 10.7385 11.5473 11.9557C11.5232 12.9326 11.5473 13.5973 11.6113 13.8375C11.7314 14.318 12.0357 14.7664 12.4041 14.9906C12.5643 15.0867 12.7084 15.1748 12.7244 15.1908C12.7404 15.1988 12.4121 15.5672 11.9957 15.9996C11.4031 16.6242 11.1709 16.9285 10.9066 17.4651C10.242 18.8184 10.29 18.0416 10.29 28.2276V37.2764L10.4662 37.8369C10.6824 38.5336 11.1469 39.2623 11.7074 39.8068C12.2119 40.2873 13.2049 40.7918 13.8856 40.9119C14.5422 41.032 26.4578 41.032 27.1145 40.9119C27.7951 40.7918 28.7881 40.2873 29.2926 39.8068C29.8531 39.2623 30.3176 38.5336 30.5338 37.8369L30.71 37.2764V28.2276C30.71 18.0416 30.758 18.8184 30.0934 17.4651C29.8291 16.9285 29.5969 16.6242 29.0043 15.9996C28.5879 15.5672 28.2596 15.1988 28.2756 15.1908C28.2916 15.1748 28.4357 15.0867 28.5959 14.9906C28.9643 14.7664 29.2686 14.318 29.3887 13.8375C29.4527 13.5973 29.4768 12.9326 29.4527 11.9557C29.4287 10.7385 29.3967 10.3861 29.2846 10.1299C28.9803 9.44122 28.4037 9.06486 27.5469 8.99279C27.0184 8.94474 26.9943 8.93673 26.9063 8.6965C26.5619 7.71954 25.3127 6.27814 24.1676 5.54943C23.3428 5.02892 23.2947 4.93283 23.5029 4.15607C23.9434 2.43439 23.2307 0.912903 21.6451 0.232239C21.1326 0.0160294 20.2678 -0.0400276 19.6992 0.120129ZM21.3088 1.39337C22.2457 1.84181 22.6381 2.8588 22.3018 3.97189C22.0775 4.7006 22.1816 5.37326 22.59 5.86974C22.7102 6.02189 23.0785 6.30216 23.3988 6.48634C24.0955 6.90275 25.1686 7.95978 25.4889 8.56036L25.7131 8.96876H20.5H15.2869L15.5111 8.56036C15.8314 7.96778 16.9045 6.90275 17.6012 6.49435C18.7303 5.82169 19.0426 5.10099 18.6902 3.92384C18.434 3.04298 18.5941 2.32228 19.1867 1.73771C19.7072 1.22521 20.6361 1.07306 21.3088 1.39337ZM27.8272 10.282C28.2195 10.4502 28.2836 10.7465 28.2516 12.3481C28.2275 13.6293 28.2195 13.6854 28.0354 13.8856L27.8432 14.0938H20.5H13.1568L12.9647 13.8856C12.7805 13.6854 12.7725 13.6293 12.7484 12.3481C12.7164 10.7705 12.7805 10.4502 13.1568 10.2901C13.5412 10.1219 27.4268 10.1139 27.8272 10.282ZM27.6029 16.2719C28.6439 17.3209 29.0443 17.8895 29.3326 18.7383L29.5088 19.2588L29.5328 27.8672C29.5488 33.1684 29.5248 36.6678 29.4768 36.9801C29.2686 38.3414 28.2436 39.4305 26.9223 39.7108C26.3297 39.8309 14.6703 39.8309 14.0777 39.7108C13.1168 39.5106 12.1959 38.7818 11.8035 37.917C11.5393 37.3484 11.4512 36.7559 11.4512 35.5707V34.5938H12.8445C14.1258 34.5938 14.2459 34.5777 14.4461 34.4256C14.7104 34.2174 14.7264 33.841 14.4781 33.5768C14.31 33.4006 14.2699 33.3926 12.8766 33.3926H11.4512V32.3996V31.4067L12.2439 31.3746C13.1568 31.3426 13.3731 31.2305 13.3731 30.782C13.3731 30.3096 13.1488 30.1895 12.2359 30.1895H11.4512V29.1965V28.1955L12.8846 28.1715C14.1578 28.1475 14.334 28.1315 14.4861 27.9953C14.6863 27.8192 14.7104 27.4108 14.5422 27.1785C14.4381 27.0424 14.2939 27.0264 12.9566 26.9863L11.4912 26.9463L11.4672 25.9613L11.4432 24.9844H12.0758C13.0367 24.9844 13.3731 24.8162 13.3731 24.3277C13.3731 23.9113 13.2129 23.8233 12.316 23.7832L11.4912 23.7432L11.4672 22.7582L11.4432 21.7813H12.7324C14.1898 21.7813 14.5342 21.7012 14.6223 21.3328C14.7104 20.9885 14.5662 20.7162 14.2539 20.6041C14.0857 20.5481 13.4691 20.508 12.7004 20.508L11.4272 20.5L11.4832 19.8594C11.6033 18.434 12.0117 17.6652 13.3971 16.2719L14.374 15.2949H20.5H26.626L27.6029 16.2719Z" fill="black"/>
<path d="M18.418 11.5873C18.0096 11.7395 17.8734 12.268 18.1777 12.5723C18.3299 12.7244 18.442 12.7324 20.7883 12.7324C22.2297 12.7324 23.2947 12.7004 23.3828 12.6523C23.599 12.5402 23.7111 12.1559 23.591 11.9236C23.4068 11.5553 23.2547 11.5312 20.8203 11.5393C19.5631 11.5393 18.482 11.5633 18.418 11.5873Z" fill="black"/>
<path d="M25.4648 11.5873C25.0484 11.7475 24.9203 12.268 25.2246 12.5723C25.3527 12.7004 25.4889 12.7324 25.9373 12.7324C26.602 12.7324 26.8502 12.5803 26.8502 12.1799C26.8502 11.7795 26.602 11.5873 26.0494 11.5553C25.7932 11.5473 25.5289 11.5553 25.4648 11.5873Z" fill="black"/>
<path d="M26.5859 17.7213C26.4738 17.7774 26.3377 17.9215 26.2816 18.0416C26.1695 18.2818 26.1615 18.2578 26.634 19.0586C26.7941 19.3149 26.9143 19.6432 26.9463 19.9074C26.9863 20.2358 27.0424 20.3719 27.2025 20.5C27.5469 20.7723 27.9393 20.6682 28.0914 20.2518C28.2756 19.7633 27.8992 18.5701 27.3787 18.0016C27.0584 17.6572 26.8582 17.5852 26.5859 17.7213Z" fill="black"/>
<path d="M27.1465 22.0215C26.9863 22.1816 26.9863 22.2857 26.9863 26.61C26.9863 30.9502 26.9863 31.0463 27.1465 31.1904C27.3707 31.3906 27.7551 31.3746 27.9713 31.1584L28.1475 30.9822V26.5939C28.1475 22.3818 28.1395 22.1896 27.9953 22.0295C27.7951 21.8133 27.3627 21.8053 27.1465 22.0215Z" fill="black"/>
</g>
<defs>
<clipPath id="clip0_1_64">
<rect width="41" height="41" fill="white"/>
</clipPath>
</defs>
</svg>
