<svg width="41" height="41" viewBox="0 0 41 41" fill="none" xmlns="http://www.w3.org/2000/svg">
<g clip-path="url(#clip0_1_28)">
<path d="M17.417 0.096096C15.8955 0.264259 14.1178 0.840824 12.9006 1.56953C12.1158 2.03399 11.0268 3.01895 10.5223 3.72364C9.81758 4.72461 9.28906 6.12598 9.15293 7.41524L9.08887 7.96778L8.48828 8.01582C6.67051 8.16797 5.17305 9.18497 4.44434 10.7705C4.10801 11.4832 4.00391 12.0037 4.00391 12.8846C4.00391 14.2299 4.47637 15.359 5.44531 16.3359C6.43828 17.3209 7.47129 17.7693 8.94473 17.8334C9.96973 17.8895 10.7785 17.7854 11.6354 17.4891C12.0678 17.3369 12.2199 17.3209 12.26 17.393C12.3801 17.5852 12.4361 18.3779 12.3881 19.2588C12.316 20.468 12.0437 21.6932 11.299 24.1836C10.1939 27.8672 10.0178 28.732 9.95371 30.718C9.86562 33.5127 10.3061 36.2754 11.283 39.0541C11.7715 40.4635 11.9236 40.7678 12.1879 40.9119C12.4682 41.0721 12.8125 40.96 12.9566 40.6557C13.0607 40.4475 13.0367 40.3434 12.6684 39.3744C11.5953 36.5477 11.1709 34.2895 11.1709 31.3506C11.1709 29.2445 11.291 28.4678 11.9477 26.2096L12.1158 25.633L13.6693 25.609L15.2309 25.585L15.4311 25.3527C15.6473 25.1045 15.6312 24.8242 15.399 24.56C15.2869 24.4398 15.1027 24.4238 13.9336 24.4238C13.1969 24.4238 12.5803 24.4078 12.5562 24.3838C12.5322 24.3598 12.6604 23.8473 12.8285 23.2387C13.6133 20.46 13.8055 18.3939 13.4051 16.9285C13.373 16.8004 13.4451 16.7123 13.8295 16.4801C14.0857 16.3199 14.5422 16.0076 14.8465 15.7834L15.399 15.383L15.7914 15.6633C16.6082 16.2639 18.0496 16.5441 18.418 16.1758C18.6262 15.9676 18.6262 15.5272 18.426 15.343C18.3299 15.2549 18.0416 15.1748 17.7053 15.1268C17.0406 15.0467 16.6482 14.8625 16.2398 14.4381C15.8154 13.9977 15.5912 13.4451 15.5832 12.8125C15.5752 12.1799 15.7914 11.7715 16.2639 11.5313C16.8004 11.251 17.2008 11.3391 17.7053 11.8516C18.1777 12.332 18.434 12.3 18.9865 11.7074C19.9395 10.7064 20.8363 9.32911 21.3088 8.14395C21.4529 7.7836 21.6051 7.46328 21.6451 7.43926C21.6852 7.40723 21.9494 7.36719 22.2297 7.33516C22.8943 7.2711 23.9914 6.94278 24.616 6.63848C25.5689 6.16602 26.3137 5.43731 26.634 4.67657L26.7621 4.36426L26.9062 4.54844C27.1705 4.86876 27.5389 5.89375 27.675 6.6545C27.7951 7.35918 27.8111 9.05684 27.691 9.16895C27.667 9.19297 27.4828 9.13692 27.2666 9.04082C26.7701 8.82461 25.8252 8.65645 25.0564 8.64844C24.3037 8.64844 24.0234 8.8086 24.0234 9.25704C24.0234 9.7295 24.1916 9.81758 25.2326 9.87364C26.1375 9.92168 26.8582 10.0979 27.2826 10.3701C27.4508 10.4822 27.4588 10.5303 27.4107 11.1148C27.3627 11.8275 27.5148 12.5643 27.8271 13.1008C27.9312 13.285 28.2596 13.7094 28.5479 14.0457C28.8361 14.382 29.0684 14.7344 29.0684 14.8225C29.0684 15.1188 28.652 15.4311 28.1234 15.5352C27.8512 15.5912 27.5789 15.6953 27.5148 15.7674C27.4508 15.8395 27.3387 16.1277 27.2666 16.416C26.9783 17.5691 26.9943 17.5371 26.8021 17.5371C26.5139 17.5371 25.6891 17.0967 25.3928 16.7844C25.1846 16.5762 25.0484 16.4961 24.8643 16.4961C24.552 16.4961 24.2637 16.7844 24.2637 17.0887C24.2637 17.5611 25.4408 18.474 26.2416 18.6262C26.3937 18.6582 26.5379 18.7223 26.5539 18.7783C26.5779 18.8264 26.5059 19.1066 26.4018 19.3869C25.9213 20.6522 25.4088 21.4049 24.7922 21.7172C24.1436 22.0535 22.4219 21.7732 20.6281 21.0525C19.0346 20.4039 19.1787 20.444 18.9225 20.6281C18.6822 20.8043 18.6102 21.0285 18.6982 21.3568C18.7303 21.501 18.8824 21.6131 19.2588 21.7973L19.7793 22.0375V23.4309C19.7793 24.1996 19.7713 24.8242 19.7633 24.8242C19.7473 24.8242 19.507 24.7441 19.2188 24.6561C18.9225 24.56 18.3619 24.4719 17.9295 24.4479C17.2168 24.4078 17.1447 24.4158 16.9846 24.576C16.7764 24.7842 16.7684 25.1445 16.9605 25.3768C17.0727 25.5209 17.2328 25.569 17.8334 25.625C19.483 25.7932 20.9645 26.7061 21.7572 28.0354C21.9014 28.2756 23.1906 31.2225 24.624 34.5938C26.0654 37.965 27.2906 40.7758 27.3547 40.8318C27.4107 40.8959 27.5949 40.952 27.7551 40.952C28.0834 40.952 28.3477 40.7117 28.3477 40.4154C28.3477 40.3193 27.7871 38.942 27.1064 37.3484C26.4258 35.7469 25.8652 34.4176 25.8652 34.3856C25.8652 34.3535 26.0574 34.3535 26.2977 34.3856C26.8262 34.4416 27.7871 34.3215 28.4037 34.1053C28.652 34.0252 28.8762 33.9531 28.9162 33.9531C28.9482 33.9531 29.0684 34.1133 29.1805 34.3055C29.4688 34.802 30.1174 35.3545 30.6539 35.5707C31.0863 35.7389 31.2465 35.7469 33.4006 35.7789L35.6988 35.8109L35.7469 36.0512C35.7709 36.1873 35.7949 37.2283 35.7949 38.3734C35.7949 40.0391 35.8189 40.4955 35.915 40.6717C36.1072 41.0481 36.4436 41.1041 36.7959 40.8238L37.0201 40.6477L36.9721 37.7649C36.892 32.8 36.4996 30.5658 35.5146 29.4848C35.2023 29.1324 34.3695 28.668 34.0572 28.668C33.873 28.668 33.873 28.652 33.9211 28.2756C33.9771 27.8191 33.841 27.1545 33.6408 26.8902C33.5607 26.7861 33.4727 26.5139 33.4406 26.2816C33.3205 25.3447 32.7359 24.0795 32.0873 23.3348C31.7189 22.9184 31.3746 22.8623 31.0863 23.1666C30.8621 23.4068 30.8621 23.7111 31.0943 23.9994C31.4947 24.4799 31.807 25.0004 31.9912 25.5049C32.2314 26.1375 32.2314 26.1055 32.0312 26.1055C31.799 26.1055 31.3105 26.3697 31.0783 26.618C30.5258 27.2106 31.2545 27.9713 31.8951 27.4668C32.1674 27.2506 32.3916 27.2666 32.5838 27.5149C32.768 27.7551 32.792 27.9873 32.6639 28.3236C32.5277 28.692 32.2875 28.8842 31.0543 29.6369C30.3656 30.0613 29.749 30.5018 29.5488 30.718C29.1484 31.1504 28.8521 31.767 28.7801 32.3035C28.724 32.6719 28.708 32.7039 28.3637 32.8481C27.7631 33.1203 26.7861 33.2565 26.2016 33.1524C25.2646 32.9922 25.2326 32.9602 24.6881 31.6789L24.2076 30.5498L24.56 30.3656C24.9123 30.1815 25.3848 29.5809 25.3848 29.3006C25.3848 29.0363 25.0725 28.7481 24.7762 28.7481C24.552 28.7481 24.4398 28.8121 24.1916 29.0764C24.0234 29.2606 23.8473 29.3967 23.7912 29.3807C23.7432 29.3647 23.543 28.9803 23.3508 28.5399C23.1586 28.0994 22.9023 27.5789 22.7822 27.3867C22.582 27.0744 22.566 26.9863 22.6141 26.5699C22.8143 24.6641 24.4799 22.8863 26.4738 22.4619C27.4187 22.2617 28.3957 22.3578 29.3646 22.7502C29.8932 22.9584 30.1494 22.9104 30.3176 22.558C30.4857 22.2057 30.3656 21.9174 29.9572 21.7092C29.4527 21.4449 28.5318 21.2287 27.723 21.1727C27.2266 21.1326 26.9943 21.0846 27.0184 21.0285C27.5148 19.8914 27.699 19.3789 27.9873 18.3779C28.1715 17.7133 28.3477 17.0807 28.3797 16.9606C28.4197 16.7924 28.5078 16.7203 28.8441 16.6082C29.6209 16.352 30.2695 15.5111 30.2695 14.7664C30.2695 14.4061 29.9332 13.7815 29.4367 13.2289C28.5639 12.2439 28.4758 11.8436 28.7561 10.242C28.9963 8.88067 29.0203 6.92676 28.8041 6.05391C28.2916 4.01192 27.1625 2.52246 25.3367 1.48145C24.9924 1.28125 24.648 1.1211 24.576 1.1211C24.3197 1.1211 24.0234 1.4334 24.0234 1.71368C24.0234 2.042 24.1275 2.16211 24.624 2.44239C24.8482 2.5625 25.2006 2.79473 25.4088 2.94688C25.7771 3.21114 25.7932 3.24317 25.7451 3.51543C25.609 4.30821 24.9363 5.14102 24.1035 5.56543C23.551 5.84571 22.3979 6.13399 21.557 6.20606C21.1246 6.2461 20.8363 6.31016 20.7402 6.39825C20.6602 6.47032 20.516 6.77461 20.4199 7.08692C20.1557 7.91973 19.499 9.14493 18.8744 9.97774L18.3219 10.7145L17.8414 10.4582C17.425 10.25 17.2648 10.21 16.7844 10.21C15.7834 10.21 15.0387 10.7145 14.5822 11.6914C14.4061 12.0598 14.374 12.2359 14.382 12.8125C14.39 13.277 14.4461 13.6373 14.5582 13.9416L14.7184 14.3981L14.1818 14.7984C13.5973 15.2389 12.9727 15.6393 12.9326 15.5992C12.9246 15.5832 12.8125 15.375 12.6924 15.1348C12.5723 14.8945 12.26 14.334 12.0037 13.8936C10.5543 11.3951 10.0898 9.67344 10.3301 7.64746C10.6104 5.24512 11.8035 3.50743 13.9336 2.37032C16.0717 1.24121 19.0586 0.912895 21.9414 1.48946C22.574 1.61758 22.598 1.61758 22.8062 1.46544C23.1025 1.24922 23.1426 0.816799 22.8863 0.584572C22.4139 0.144142 19.3789 -0.12812 17.417 0.096096ZM9.15293 9.78555C9.20898 10.4502 9.4252 11.275 9.76953 12.1639C9.99375 12.7404 10.298 13.309 11.4031 15.2789C11.6594 15.7354 11.8516 16.1277 11.8195 16.1518C11.7955 16.1758 11.4752 16.2879 11.1148 16.4C10.3141 16.6322 8.99277 16.7203 8.32012 16.5842C7.09492 16.3279 6.06992 15.5352 5.54141 14.4381C5.25312 13.8215 5.24512 13.7975 5.24512 12.8525C5.24512 11.9076 5.25312 11.8836 5.54141 11.275C6.12598 10.0498 7.36719 9.225 8.65645 9.217L9.10488 9.20899L9.15293 9.78555ZM22.1096 22.7902L23.0385 23.0145L22.6861 23.4469C22.3018 23.9193 21.7732 24.9123 21.6131 25.4649C21.557 25.665 21.501 25.8412 21.493 25.8492C21.485 25.8652 21.3648 25.8012 21.2287 25.6971L20.9805 25.5129V23.9994C20.9805 22.8223 21.0045 22.4939 21.0846 22.526C21.1326 22.55 21.5971 22.6621 22.1096 22.7902ZM33.9852 29.8852C34.5057 30.0453 34.874 30.4777 35.1062 31.2145C35.3385 31.9512 35.5227 32.9842 35.6027 33.9371L35.6588 34.6018L33.4646 34.5777C31.3986 34.5537 31.2545 34.5457 30.9502 34.3775C29.9332 33.833 29.6369 32.4797 30.3416 31.6229C30.5898 31.3266 32.5518 30.0854 33.0643 29.9012C33.4326 29.765 33.5768 29.765 33.9852 29.8852Z" fill="black"/>
<path d="M23.0785 12.0918C22.9664 12.2039 22.9023 12.356 22.9023 12.5322C22.9023 13.0928 23.9594 13.7174 24.9123 13.7174C25.4729 13.7174 25.8172 13.5893 25.9373 13.325C26.0654 13.0447 26.0494 12.9406 25.8492 12.6924C25.6891 12.4842 25.649 12.4762 25.2246 12.5162C24.7041 12.5643 24.3037 12.4441 23.9434 12.1398C23.6391 11.8916 23.3187 11.8756 23.0785 12.0918Z" fill="black"/>
<path d="M28.2596 27.4668C28.0033 27.7871 28.0033 27.7871 27.4908 27.7631C27.0344 27.7471 26.9543 27.7711 26.8182 27.9393C26.61 28.1875 26.626 28.4518 26.8582 28.724C27.0264 28.9162 27.1145 28.9483 27.5949 28.9723C28.0514 28.9963 28.2115 28.9643 28.4998 28.8121C29.2445 28.4277 29.5809 27.643 29.1564 27.2986C28.8441 27.0424 28.5479 27.0984 28.2596 27.4668Z" fill="black"/>
<path d="M27.0504 30.5578C26.8822 30.6779 26.6019 30.782 26.3857 30.8061C25.641 30.8941 25.4568 31.6068 26.0975 31.9432C26.4658 32.1434 27.3227 31.9031 27.8271 31.4627C28.1875 31.1424 28.2195 30.766 27.8992 30.5178C27.6189 30.2936 27.4027 30.3096 27.0504 30.5578Z" fill="black"/>
<path d="M16.6723 34.3775C16.5762 34.4816 16.4961 34.6498 16.4961 34.7539C16.4961 35.0742 18.8824 40.6156 19.1066 40.8238C19.3389 41.032 19.5951 41.0481 19.8354 40.8799C20.2037 40.6236 20.1717 40.5115 18.8584 37.4125C18.1617 35.7789 17.5371 34.4096 17.441 34.3295C17.2168 34.1373 16.8805 34.1613 16.6723 34.3775Z" fill="black"/>
</g>
<defs>
<clipPath id="clip0_1_28">
<rect width="41" height="41" fill="white"/>
</clipPath>
</defs>
</svg>
