<svg width="41" height="42" viewBox="0 0 41 42" fill="none" xmlns="http://www.w3.org/2000/svg">
<g clip-path="url(#clip0_1_33)">
<path d="M10.1299 0.112503C9.6334 0.329475 9.23301 0.932175 9.21699 1.46255L9.20898 1.68756H7.20703C5.07695 1.68756 4.63652 1.73577 3.92382 2.07329C3.37929 2.33044 2.63457 3.02958 2.32226 3.57602C1.84179 4.41177 1.84179 4.42784 1.84179 11.1942C1.84179 17.8158 1.83379 17.7033 2.23418 17.9203C2.43437 18.0248 2.85078 18.0248 3.04297 17.9203C3.40332 17.7274 3.40332 17.7998 3.44336 11.1299C3.4914 4.02604 3.44336 4.57249 4.06797 3.91354C4.60449 3.35905 4.9248 3.29476 7.20703 3.29476H9.20898V3.59209C9.21699 4.24301 9.69746 4.88589 10.3141 5.06268C10.5143 5.12697 12.4602 5.14304 16.5441 5.12697L22.4699 5.10286L22.7982 4.88589C23.1906 4.62874 23.4629 4.1064 23.4629 3.62424V3.28673L25.609 3.31083C27.627 3.33494 27.7631 3.34298 28.0754 3.51173C28.4758 3.72871 28.8521 4.11443 29.0443 4.49213C29.1805 4.76535 29.1885 5.23948 29.2125 12.0219L29.2285 19.2543L29.0043 19.6721L28.7801 20.09L28.4998 19.8007C27.8031 19.0534 26.666 18.5873 25.4008 18.5069C24.2717 18.4426 23.9434 18.6355 23.9434 19.3909C23.9434 19.8248 24.2717 20.9981 24.5439 21.5365L24.7441 21.9383L24.5279 21.9785C22.1896 22.4848 20.2998 24.325 19.4189 26.9608C18.8984 28.5037 18.6822 30.7297 18.8904 32.4333C18.9785 33.1566 19.2828 34.6272 19.4189 34.9807C19.475 35.1093 19.0986 35.1174 12.2359 35.1174H4.99687L4.57246 34.9004C4.13203 34.6834 3.73164 34.2254 3.54746 33.7271C3.4834 33.5423 3.45136 32.0717 3.45136 28.4234L3.44336 23.3687L3.17109 23.0955C2.80273 22.7258 2.48242 22.7258 2.11406 23.0955L1.84179 23.3687V28.4234C1.84179 32.6423 1.85781 33.5503 1.96191 33.9361C2.29824 35.2299 3.19511 36.1942 4.4123 36.5719C4.87675 36.7165 5.26113 36.7246 12.5002 36.7246H20.0996L20.2357 36.9415C21.3809 38.7978 22.3178 39.722 23.7752 40.4613C24.9604 41.056 25.2166 41.0881 28.5879 41.1283C32.3516 41.1685 32.9682 41.0801 34.3936 40.3649C37.3725 38.8541 39.3264 34.7075 39.1342 30.3359C38.958 26.559 37.4125 23.7143 34.85 22.4767L34.1854 22.1553L34.4576 21.866C35.1303 21.1668 35.7389 19.9293 36.0832 18.5873C36.3635 17.4864 36.3955 17.1087 36.2514 16.8194C36.0432 16.4336 35.7709 16.3613 34.5697 16.4176C33.2805 16.4738 32.4877 16.6667 31.5348 17.1488L30.8301 17.5024L30.8141 10.9852L30.79 4.45998L30.4937 3.83318C29.9812 2.76439 28.9803 1.97686 27.8752 1.76792C27.643 1.72774 26.5459 1.68756 25.4568 1.68756H23.4629V1.42237C23.4549 0.996464 23.1906 0.514301 22.8143 0.265186L22.4699 0.0401802L16.424 0.0241051C11.5312 0.00803375 10.3221 0.0241051 10.1299 0.112503ZM21.8613 2.57152V3.53584H16.3359H10.8105V2.57152V1.6072H16.3359H21.8613V2.57152ZM34.5938 18.0328C34.5938 18.0489 34.5217 18.3141 34.4256 18.6114C34.0412 19.873 33.2404 21.0302 32.3916 21.5767C32.0473 21.8017 31.8951 21.8419 31.2705 21.8821C30.8781 21.9142 30.4137 21.9785 30.2455 22.0267C30.0693 22.0749 29.9172 22.091 29.8932 22.0669C29.8051 21.9865 30.2695 20.6847 30.5498 20.2106C31.2385 19.0614 32.3596 18.3221 33.777 18.081C34.2094 18.0087 34.5938 17.9846 34.5938 18.0328ZM26.4258 20.3231C27.0264 20.5561 27.4988 20.974 27.7791 21.5526C27.9152 21.8258 28.0193 22.0508 28.0113 22.0588C27.9953 22.0749 27.723 22.0347 27.4027 21.9785C26.9463 21.8981 26.7541 21.8258 26.5699 21.649C26.3137 21.3999 26.0254 20.9499 25.8252 20.4677C25.7051 20.1784 25.7051 20.1704 25.8652 20.1704C25.9533 20.1704 26.2096 20.2427 26.4258 20.3231ZM27.1145 23.5455C27.3707 23.5937 27.8992 23.7223 28.2756 23.8348L28.9643 24.0357L29.6689 23.8268C30.6939 23.5294 31.4066 23.441 32.3115 23.4893C33.6408 23.5616 34.5617 23.9714 35.4746 24.9036C36.4275 25.8759 36.9881 27.001 37.3164 28.6162C38.1492 32.6664 36.6357 37.1906 33.9131 38.7898C32.776 39.4648 32.6238 39.4889 29.2766 39.5211C26.0574 39.5532 25.5369 39.505 24.608 39.0952C22.0936 37.9782 20.4199 34.6754 20.4199 30.8422C20.4199 27.5073 21.7893 24.775 23.9193 23.8589C24.7842 23.4893 26.0574 23.3607 27.1145 23.5455Z" fill="black"/>
<path d="M7.31113 9.68339C6.81464 10.037 6.95878 10.8727 7.55937 11.0736C7.7996 11.154 9.81757 11.1701 17.0726 11.154L26.2816 11.1299L26.5139 10.8647C26.8182 10.5272 26.8262 10.1495 26.5379 9.81197L26.3297 9.56285H16.9045C8.64843 9.56285 7.46328 9.57892 7.31113 9.68339Z" fill="black"/>
<path d="M7.30312 13.9425C6.99883 14.1996 6.93476 14.4648 7.0789 14.8184C7.31113 15.3809 6.86269 15.3488 15.0947 15.3488C23.0225 15.3488 22.9264 15.3568 23.1346 14.963C23.3027 14.6496 23.2387 14.2318 22.9904 13.9746L22.7582 13.7416H15.1508H7.54336L7.30312 13.9425Z" fill="black"/>
<path d="M7.2791 18.1453C7.09492 18.3141 7.03085 18.4426 7.02285 18.6596C7.01484 18.9971 7.21503 19.3427 7.49531 19.4471C7.61542 19.4954 10.21 19.5275 14.0697 19.5275H20.4359L20.7082 19.2543C21.0045 18.9569 21.0525 18.6918 20.8684 18.3301C20.8043 18.2096 20.6601 18.073 20.54 18.0167C20.3879 17.9444 18.7223 17.9203 13.9336 17.9203H7.52734L7.2791 18.1453Z" fill="black"/>
<path d="M2.25019 19.7204C1.55351 20.1061 1.8418 21.2151 2.64258 21.2151C2.94687 21.2151 3.21113 21.0383 3.35527 20.757C3.69961 20.074 2.93086 19.3427 2.25019 19.7204Z" fill="black"/>
<path d="M10.4582 21.8981C8.54433 22.2999 6.95878 23.8107 6.43828 25.7233C6.2541 26.4144 6.2541 27.676 6.43828 28.3591C6.84667 29.8618 7.85566 31.0833 9.24902 31.7583C12.0918 33.1244 15.4791 31.6779 16.4641 28.6644C16.6562 28.0939 16.6883 27.8689 16.6883 27.0412C16.6883 26.1894 16.6643 25.9965 16.4641 25.434C16.0557 24.2366 15.375 23.3446 14.39 22.6776C13.2769 21.9383 11.7394 21.6329 10.4582 21.8981ZM12.7004 23.6178C15.1988 24.5018 15.9275 27.7242 14.0537 29.6047C12.6283 31.0431 10.3141 31.027 8.9287 29.5645C7.32714 27.885 7.5914 25.3536 9.50527 24.0196C10.3941 23.4009 11.6273 23.2482 12.7004 23.6178Z" fill="black"/>
<path d="M12.308 25.5625C12.0277 25.8438 11.6033 26.3019 11.3551 26.5751L10.9066 27.0733L10.7225 26.8644C10.266 26.3822 9.72949 26.3019 9.36113 26.6715C9.10488 26.9287 9.05683 27.3064 9.233 27.6037C9.36113 27.8207 10.4102 28.8091 10.6264 28.9216C10.8506 29.0341 11.1228 29.0341 11.3391 28.9055C11.4752 28.8252 12.1158 28.1421 13.5172 26.5831C13.7894 26.2697 13.8535 26.1411 13.8535 25.884C13.8535 25.442 13.5973 25.1607 13.1488 25.0965C12.8125 25.0482 12.7965 25.0643 12.308 25.5625Z" fill="black"/>
</g>
<defs>
<clipPath id="clip0_1_33">
<rect width="41" height="41.1444" fill="white"/>
</clipPath>
</defs>
</svg>
