<svg width="41" height="42" viewBox="0 0 41 42" fill="none" xmlns="http://www.w3.org/2000/svg">
<g clip-path="url(#clip0_1_46)">
<path d="M9.68145 0.152687C9.50527 0.297335 9.48926 0.369659 9.48926 1.0045C9.48926 1.63935 9.50527 1.71167 9.68145 1.85632C9.92969 2.05722 10.1859 2.04919 10.3941 1.82418C10.5463 1.66346 10.5703 1.54292 10.5703 0.996468C10.5703 0.425912 10.5463 0.329479 10.3861 0.176795C10.1539 -0.0401771 9.92969 -0.048213 9.68145 0.152687Z" fill="black"/>
<path d="M19.5471 1.77596C17.2648 2.01704 15.1988 3.04564 13.5893 4.73321C10.8426 7.62617 10.1459 11.9094 11.8436 15.4774C13.2449 18.4185 15.8154 20.3793 18.9785 20.9258C24.3197 21.8419 29.4287 18.0167 30.1094 12.5844C30.79 7.16812 26.8582 2.29026 21.3969 1.76792C20.452 1.67952 20.5 1.67952 19.5471 1.77596ZM22.3498 3.00546C23.8473 3.33494 25.2486 4.08229 26.3857 5.15911C27.8111 6.50916 28.684 8.16458 28.9883 10.0611C29.1324 10.9611 29.0523 12.721 28.8281 13.5407C28.2035 15.847 26.69 17.7917 24.64 18.9248C22.6541 20.0177 20.0115 20.2507 17.8574 19.5275C14.5262 18.4025 12.2039 15.3327 12.0357 11.8049C11.8195 7.4092 14.9506 3.59209 19.3469 2.89296C19.9795 2.79653 21.6932 2.86082 22.3498 3.00546Z" fill="black"/>
<path d="M17.3449 6.68596C17.1848 6.91096 17.1848 7.15205 17.3289 7.36098C17.433 7.49759 17.5771 7.5217 18.6342 7.56188C19.9314 7.6101 20.2437 7.70653 20.6682 8.17262C20.9164 8.43781 21.1406 8.76728 21.1406 8.85568C21.1406 8.89586 20.3158 8.91997 19.3148 8.91997C17.6412 8.91997 17.473 8.93604 17.3529 9.06461C17.1607 9.27355 17.1848 9.66732 17.385 9.85214C17.5371 9.98876 17.7213 10.0048 19.3469 10.0289L21.1326 10.0611L20.9805 10.3664C20.8043 10.712 20.4199 11.0656 20.0436 11.2263C19.8674 11.2986 19.4189 11.3308 18.6582 11.3308C17.5691 11.3308 17.5211 11.3388 17.3369 11.5317C17.2248 11.6361 17.1367 11.8049 17.1367 11.9094C17.1367 12.0379 17.6252 12.5683 18.9225 13.83C21.1807 16.0318 21.501 16.3131 21.7412 16.3131C21.9574 16.3131 22.2617 15.9756 22.2617 15.7184C22.2617 15.6059 21.7572 15.0595 20.6842 14.0148L19.1066 12.4799L19.6191 12.4317C20.7082 12.3192 21.7492 11.5236 22.1096 10.5272L22.2857 10.045H22.9344C23.6311 10.045 23.7111 10.0209 23.8553 9.74768C24.0875 9.3057 23.8232 9.00033 23.1906 9.00033C22.4379 9.00033 22.2697 8.93604 22.1816 8.60656C22.1416 8.44584 22.0135 8.16458 21.9094 7.97172L21.7092 7.6342H22.6541C23.4869 7.6342 23.615 7.61813 23.7672 7.47348C24.0154 7.24044 23.9994 6.88686 23.7352 6.67792C23.527 6.5172 23.4389 6.50916 20.492 6.50916H17.465L17.3449 6.68596Z" fill="black"/>
<path d="M7.82364 1.99293C7.64746 2.19383 7.65547 2.59563 7.83164 2.75635C7.94375 2.86082 8.14395 2.89296 8.67246 2.89296C9.3211 2.89296 9.36914 2.87689 9.52129 2.68402C9.61739 2.56348 9.68946 2.42687 9.68946 2.37062C9.68946 2.31437 9.61739 2.17775 9.52129 2.05721C9.36914 1.85631 9.3211 1.84828 8.65645 1.84828C8.07989 1.84828 7.92774 1.87239 7.82364 1.99293Z" fill="black"/>
<path d="M10.5463 1.99293C10.3701 2.19383 10.3701 2.59563 10.5543 2.75635C10.7545 2.94118 12.0197 2.94922 12.2039 2.77242C12.4121 2.55545 12.4361 2.32241 12.276 2.0974C12.1238 1.90454 12.0678 1.88846 11.3951 1.86436C10.7785 1.84828 10.6584 1.86436 10.5463 1.99293Z" fill="black"/>
<path d="M9.68145 2.88493C9.50527 3.02957 9.48926 3.1019 9.48926 3.73674C9.48926 4.37159 9.50527 4.44391 9.68145 4.58856C9.92969 4.78946 10.1859 4.78142 10.3941 4.55642C10.5463 4.3957 10.5703 4.27516 10.5703 3.72871C10.5703 3.15815 10.5463 3.06172 10.3861 2.90903C10.1539 2.69206 9.92969 2.68403 9.68145 2.88493Z" fill="black"/>
<path d="M33.5607 6.39667C33.4246 6.57346 33.3926 6.72614 33.3926 7.2083C33.3926 7.73064 33.4166 7.82708 33.5928 7.99583C33.6969 8.10834 33.865 8.19673 33.9531 8.19673C34.0492 8.19673 34.2094 8.10834 34.3135 7.99583C34.4896 7.82708 34.5137 7.73064 34.5137 7.2083C34.5137 6.50113 34.3375 6.18773 33.9531 6.18773C33.801 6.18773 33.6648 6.26005 33.5607 6.39667Z" fill="black"/>
<path d="M31.767 8.18066C31.5908 8.38156 31.5988 8.78336 31.775 8.94408C31.9992 9.15302 33.2324 9.13695 33.4166 8.93605C33.5928 8.73515 33.5848 8.33335 33.4086 8.17263C33.1844 7.96369 31.9512 7.97976 31.767 8.18066Z" fill="black"/>
<path d="M34.4897 8.18066C34.3135 8.38156 34.3215 8.78336 34.4977 8.94408C34.6098 9.04854 34.81 9.08069 35.3305 9.08069C36.0832 9.08069 36.2994 8.96818 36.2994 8.55835C36.2994 8.14851 36.0832 8.03601 35.3145 8.03601C34.7459 8.03601 34.5938 8.06012 34.4897 8.18066Z" fill="black"/>
<path d="M33.5607 9.1289C33.4246 9.3057 33.3926 9.45838 33.3926 9.94054C33.3926 10.4629 33.4166 10.5593 33.5928 10.7281C33.6969 10.8406 33.865 10.929 33.9531 10.929C34.0492 10.929 34.2094 10.8406 34.3135 10.7281C34.4896 10.5593 34.5137 10.4629 34.5137 9.94054C34.5137 9.23337 34.3375 8.91997 33.9531 8.91997C33.801 8.91997 33.6648 8.99229 33.5607 9.1289Z" fill="black"/>
<path d="M28.708 23.2562C28.3236 23.3768 27.7951 23.6419 26.3057 24.4696L25.1846 25.0884L23.0225 25.0482C20.6041 25.0081 20.548 25 19.2348 24.4054C17.0967 23.433 15.327 23.2321 13.333 23.7384C11.8836 24.108 10.9867 24.6384 9.20899 26.1572C8.74453 26.559 7.72754 27.1537 7.65547 27.0733C7.63946 27.0572 7.4793 26.5349 7.29512 25.9161C7.07891 25.1929 6.90274 24.7429 6.79063 24.6464C6.64649 24.5259 6.37422 24.5098 3.66758 24.5098C1.80176 24.5098 0.656644 24.542 0.56055 24.5902C0.472464 24.6384 0.368362 24.7429 0.320315 24.8232C0.264261 24.9357 0.504495 27.1296 1.20117 32.8432C1.72969 37.1746 2.17813 40.7747 2.21016 40.8551C2.23418 40.9274 2.33028 41.0238 2.41035 41.064C2.49844 41.1122 4.25215 41.1444 6.94278 41.1444C11.8195 41.1444 11.6914 41.1604 11.6914 40.6381C11.6914 40.5015 11.4592 39.6175 11.1709 38.6854C10.8826 37.7451 10.6504 36.9335 10.6504 36.8692C10.6504 36.6763 14.0537 34.5468 14.5742 34.4022C15.0147 34.2897 15.0467 34.2897 19.0586 35.037C21.7172 35.5272 23.3748 35.8004 23.9033 35.8245C25.3127 35.8888 26.8822 35.5754 28.0674 34.9888C28.5719 34.7477 40.0871 26.8644 40.6236 26.3983C40.9119 26.1492 40.9039 25.8679 40.5836 25.4179C39.6947 24.1804 37.901 23.7303 36.4596 24.3893L36.0512 24.5741L35.7789 24.2929C35.6348 24.1402 35.2824 23.8991 34.9941 23.7625C34.5377 23.5375 34.4016 23.5053 33.793 23.5053C33.2084 23.5053 33.0482 23.5375 32.6639 23.7223C32.4156 23.8509 32.1914 23.9473 32.1674 23.9473C32.1434 23.9473 31.9672 23.8428 31.775 23.7143C31.2064 23.3285 30.5338 23.1437 29.733 23.1517C29.3486 23.1517 28.8842 23.2 28.708 23.2562ZM30.766 24.4134L31.1023 24.558L29.9652 25.1768L28.8201 25.8036L28.2436 25.5224C27.9232 25.3697 27.5949 25.225 27.5068 25.1929C27.3787 25.1527 27.4908 25.0643 28.0273 24.767C28.4037 24.5661 28.8682 24.3491 29.0684 24.2929C29.5248 24.1643 30.3256 24.2205 30.766 24.4134ZM16.7523 24.7027C17.457 24.8473 17.9936 25.0322 18.9064 25.4581C20.1797 26.0608 20.1717 26.0527 23.7832 26.109C26.9463 26.1652 27.0344 26.1652 27.5068 26.3581C28.1715 26.6153 28.9002 27.3465 29.1404 27.9975C29.2365 28.2546 29.3006 28.4796 29.2846 28.5037C29.2686 28.5198 28.4117 28.4877 27.3787 28.4394C25.5689 28.351 23.3268 28.3832 22.4299 28.5198C22.1576 28.56 21.9574 28.6403 21.8934 28.7287C21.7332 28.9537 21.7572 29.3073 21.9494 29.5002C22.0936 29.6448 22.1736 29.6609 22.4859 29.6127C23.575 29.4439 25.5369 29.4439 28.9643 29.6127C30.0453 29.6689 30.1014 29.6609 30.2615 29.5002C30.3576 29.4038 30.4297 29.227 30.4297 29.1064C30.4297 28.8895 30.5818 28.793 33.7369 27.0894C37.3324 25.1366 37.5486 25.0482 38.3414 25.217C38.7738 25.3054 39.3984 25.659 39.4465 25.8358C39.4625 25.876 36.8199 27.7323 33.5928 29.9582C27.2346 34.3298 27.2986 34.2897 25.7852 34.6031C25.2887 34.6995 24.8643 34.7236 24.0395 34.6915C23.1025 34.6593 22.3979 34.5548 19.2588 33.9602C15.2469 33.2048 14.7184 33.1566 13.9977 33.4298C13.7654 33.5182 12.8365 34.0566 11.9316 34.6272C10.5383 35.5111 10.282 35.6477 10.226 35.5352C10.0738 35.1897 8.00782 28.2466 8.03184 28.1743C8.05586 28.126 8.2 28.0376 8.36817 27.9734C8.88067 27.7885 9.54531 27.3546 10.1299 26.8242C11.5713 25.5224 12.4441 25.0322 13.9336 24.7188C14.6223 24.5661 16.0156 24.558 16.7523 24.7027ZM34.5537 24.7589C34.7459 24.8473 34.9461 24.9679 34.9861 25.0241C35.0502 25.0965 34.4496 25.45 32.6559 26.4304C31.3346 27.1456 30.2455 27.7242 30.2375 27.7082C30.2215 27.6921 30.0854 27.443 29.9252 27.1456L29.6369 26.6072L30.2936 26.2456C33.2324 24.6384 33.3365 24.5902 33.777 24.5902C34.0332 24.5902 34.3295 24.6545 34.5537 24.7589ZM6.11797 25.7715C6.14199 25.8518 7.11094 29.0662 8.28008 32.9235C9.44922 36.7808 10.4102 39.955 10.4102 39.9791C10.4102 40.0033 8.77657 40.0113 6.79063 40.0033L3.16309 39.9791L2.30625 32.9476C1.83379 29.0823 1.44942 25.8518 1.44141 25.7715C1.44141 25.6429 1.60157 25.6349 3.75567 25.6349C5.89375 25.6349 6.07793 25.6429 6.11797 25.7715Z" fill="black"/>
<path d="M6.15 36.2424C5.46934 36.371 4.80469 37.1505 4.80469 37.8014C4.80469 38.7577 5.56543 39.5372 6.48633 39.5372C7.19102 39.5372 7.71953 39.1916 8.01582 38.5327C8.56836 37.3192 7.4793 35.9772 6.15 36.2424ZM6.83867 37.4558C6.99082 37.5764 7.04688 37.6969 7.04688 37.8898C7.04688 38.1791 6.75859 38.4925 6.48633 38.4925C6.21406 38.4925 5.92578 38.1791 5.92578 37.8898C5.92578 37.6005 6.21406 37.2871 6.48633 37.2871C6.56641 37.2871 6.71855 37.3594 6.83867 37.4558Z" fill="black"/>
</g>
<defs>
<clipPath id="clip0_1_46">
<rect width="41" height="41.1444" fill="white"/>
</clipPath>
</defs>
</svg>
