<svg width="33" height="32" viewBox="0 0 33 32" fill="none" xmlns="http://www.w3.org/2000/svg">
<path d="M17.1834 17.5123C17.1834 17.5123 12.5019 15.3164 10.4929 12.1861C8.45586 8.99971 9.90422 5.31807 12.9224 4.80413C15.9406 4.2902 17.1741 6.95331 17.1741 6.95331C17.1741 6.95331 18.4823 4.30888 21.4257 4.80413C24.3691 5.29938 25.9016 8.99971 23.8552 12.1861C21.8555 15.3071 17.1647 17.5123 17.1647 17.5123H17.1834Z" fill="white"/>
<path d="M17.1831 18.2501C17.071 18.2501 16.9682 18.2314 16.8654 18.1753C16.6692 18.0819 11.9597 15.8486 9.86659 12.5781C8.7079 10.7653 8.47429 8.6255 9.25921 6.85009C9.932 5.35501 11.2215 4.33648 12.8007 4.07484C14.8471 3.7291 16.3235 4.69156 17.1831 5.65402C18.0335 4.69156 19.5192 3.71976 21.5656 4.07484C23.1448 4.34583 24.4343 5.36435 25.0977 6.85943C25.8827 8.63484 25.6584 10.7653 24.4904 12.5875C22.3973 15.858 17.6971 18.0912 17.4915 18.1847C17.3887 18.2314 17.2859 18.2501 17.1738 18.2501H17.1831ZM13.6417 5.47648C13.4548 5.47648 13.2586 5.49517 13.053 5.5232C11.969 5.71009 11.0813 6.41091 10.6235 7.44812C10.0441 8.76566 10.231 10.3822 11.1187 11.7745C12.6886 14.2321 16.1272 16.1289 17.1831 16.6709C18.2391 16.1289 21.6777 14.2321 23.2476 11.7745C24.1446 10.3822 24.3222 8.76566 23.7428 7.44812C23.285 6.40157 22.3972 5.70075 21.3133 5.5232C18.9679 5.1214 17.884 7.18648 17.8466 7.27058C17.7251 7.52288 17.4635 7.68173 17.1831 7.68173C16.9028 7.68173 16.6505 7.52288 16.5197 7.27058C16.4823 7.19583 15.5853 5.47648 13.6417 5.47648Z" fill="#040222"/>
<path d="M17.1025 13.2325C16.9025 13.2325 16.7025 13.1525 16.5425 13.0025L15.0325 11.5025C14.7225 11.1925 14.7225 10.6925 15.0325 10.3825C15.3425 10.0725 15.8425 10.0725 16.1525 10.3825L17.1025 11.3325L19.2125 9.2325C19.5225 8.9225 20.0225 8.9225 20.3325 9.2325C20.6425 9.5425 20.6425 10.0425 20.3325 10.3525L17.6625 13.0125C17.5125 13.1625 17.3025 13.2425 17.1025 13.2425V13.2325Z" fill="#040222"/>
<path d="M16.8101 28.3199C16.2901 28.3199 15.7701 28.2599 15.2601 28.1299L10.1401 26.8899L5.74005 28.0599C5.34005 28.1699 4.93005 27.9299 4.82005 27.53C4.71005 27.13 4.95005 26.72 5.35005 26.61L9.93005 25.3899C10.0501 25.3599 10.1801 25.3599 10.3001 25.3899L15.6001 26.6699C16.9301 26.9899 18.3501 26.7699 19.5101 26.0499L27.1501 21.3199C27.2701 21.2499 27.3201 21.1099 27.2901 20.9799C27.2501 20.8299 27.0901 20.7299 26.9301 20.7499L16.8801 21.8899C16.4801 21.9399 16.1001 21.6399 16.0501 21.2299C16.0001 20.8199 16.3001 20.4499 16.7101 20.3999L26.7601 19.2599C27.6401 19.1499 28.5001 19.7299 28.7401 20.5899C28.9501 21.3699 28.6301 22.1699 27.9401 22.5999L20.3001 27.3299C19.2501 27.9799 18.0301 28.3199 16.8001 28.3199H16.8101Z" fill="#040222"/>
<path d="M17.1401 24.82C16.5201 24.82 15.8701 24.74 15.1901 24.57L11.5801 23.67C11.1801 23.57 10.9301 23.16 11.0301 22.76C11.1301 22.36 11.5401 22.11 11.9401 22.21L15.5501 23.11C16.7301 23.4 17.7601 23.39 18.6201 23.07C18.6901 23.04 18.7301 22.99 18.7301 22.92C18.7301 22.82 18.6601 22.79 18.6301 22.77L14.0901 20.76C12.1601 19.9 10.2001 19.99 8.10006 21.03L5.89006 22.14C5.52006 22.33 5.07006 22.17 4.88006 21.8C4.69006 21.43 4.84006 20.98 5.22006 20.79L7.44006 19.68C9.93006 18.45 12.3801 18.35 14.7101 19.39L19.2501 21.4C19.8701 21.68 20.2601 22.29 20.2401 22.96C20.2201 23.64 19.7901 24.23 19.1501 24.47C18.5301 24.7 17.8601 24.82 17.1501 24.82H17.1401Z" fill="#040222"/>
</svg>
